<?xml version="1.0" encoding="utf-8"?>
<!-- Generator: Adobe Illustrator 24.1.2, SVG Export Plug-In . SVG Version: 6.00 Build 0)  -->
<svg version="1.1" id="Layer_1" xmlns="http://www.w3.org/2000/svg" xmlns:xlink="http://www.w3.org/1999/xlink" x="0px" y="0px"
	 viewBox="0 0 200 200" style="enable-background:new 0 0 200 200;" xml:space="preserve">
<rect width="200" height="200"/>
<g id="_x30_32---24-Hour-Protection">
	<linearGradient id="SVGID_1_" gradientUnits="userSpaceOnUse" x1="65.6512" y1="124.697" x2="134.3327" y2="56.0156">
		<stop  offset="0" style="stop-color:#FFCB55"/>
		<stop  offset="0.111" style="stop-color:#ECBA49"/>
		<stop  offset="0.174" style="stop-color:#9D7314"/>
		<stop  offset="0.4283" style="stop-color:#ECBA49"/>
		<stop  offset="0.5732" style="stop-color:#CC9E34"/>
		<stop  offset="0.6401" style="stop-color:#B78A25"/>
		<stop  offset="0.7438" style="stop-color:#ECBA49"/>
		<stop  offset="0.8822" style="stop-color:#B78A25"/>
		<stop  offset="1" style="stop-color:#7F5800"/>
	</linearGradient>
	<path style="fill:url(#SVGID_1_);" d="M143.1,94.6V65.5c0-0.5-0.3-1-0.7-1.3c-0.4-0.3-1-0.4-1.5-0.3c-20.1,4.5-35.3-9.1-39.7-13.3
		c-0.7-0.7-1.8-0.7-2.6,0C94.4,54.7,79.2,68.2,59,63.8c-0.5-0.1-1.1,0-1.5,0.3c-0.4,0.3-0.6,0.8-0.7,1.3v29.1
		c0,27.1,18.1,42.9,42.3,55.1c0.5,0.3,1.1,0.3,1.7,0C125,137.5,143.1,121.6,143.1,94.6z M121.9,75.6l2.4-2.4
		c0.4-0.4,1.1-0.6,1.7-0.5c0.6,0.2,1.1,0.6,1.2,1.2c0.2,0.6,0,1.2-0.5,1.7l-2.4,2.4c-0.7,0.6-1.8,0.6-2.4,0
		C121.3,77.3,121.3,76.3,121.9,75.6L121.9,75.6z M110.9,69l1.3-3.2c0.4-0.9,1.4-1.3,2.2-0.9c0.9,0.4,1.3,1.4,0.9,2.2l-1.3,3.2
		c-0.2,0.6-0.8,1-1.4,1.1c-0.6,0.1-1.2-0.2-1.6-0.7C110.8,70.3,110.7,69.6,110.9,69L110.9,69z M98.3,63.8c0-1,0.8-1.7,1.7-1.7
		s1.7,0.8,1.7,1.7v3.5c0,1-0.8,1.7-1.7,1.7s-1.7-0.8-1.7-1.7V63.8z M85.5,64.9c0.4-0.2,0.9-0.2,1.3,0c0.4,0.2,0.8,0.5,0.9,0.9
		l1.3,3.2c0.2,0.6,0.2,1.2-0.2,1.7c-0.4,0.5-1,0.7-1.6,0.7c-0.6-0.1-1.1-0.5-1.4-1.1l-1.3-3.2C84.2,66.3,84.6,65.3,85.5,64.9z
		 M73.2,73.1c0.7-0.7,1.8-0.7,2.4,0l2.4,2.4c0.4,0.4,0.6,1.1,0.5,1.7c-0.2,0.6-0.6,1.1-1.2,1.2s-1.2,0-1.7-0.5l-2.4-2.4
		C72.5,74.9,72.5,73.8,73.2,73.1z M65,85.5c0.4-0.9,1.4-1.3,2.2-0.9l3.2,1.3c0.8,0.3,1.2,1.1,1,1.9s-0.9,1.4-1.7,1.4
		c-0.5,0-0.5-0.1-3.8-1.4c-0.4-0.2-0.8-0.5-0.9-0.9C64.8,86.3,64.8,85.9,65,85.5z M70.4,114.1c-3.5,1.4-3.4,1.4-3.8,1.4
		c-0.8,0-1.5-0.6-1.7-1.4c-0.2-0.8,0.3-1.6,1-1.9l3.2-1.3c0.9-0.4,1.9,0.1,2.2,0.9S71.3,113.7,70.4,114.1z M78.1,124.4
		c-2.6,2.7-2.7,2.9-3.7,2.9c-0.7,0-1.3-0.4-1.6-1.1c-0.3-0.6-0.1-1.4,0.4-1.9l2.4-2.4c0.7-0.6,1.8-0.6,2.4,0
		C78.7,122.6,78.7,123.7,78.1,124.4L78.1,124.4z M89.1,130.9l-1.3,3.2c-0.2,0.6-0.8,1-1.4,1.1c-0.6,0.1-1.2-0.2-1.6-0.7
		c-0.4-0.5-0.5-1.1-0.2-1.7l1.3-3.2c0.2-0.6,0.8-1,1.4-1.1c0.6-0.1,1.2,0.2,1.6,0.7C89.2,129.7,89.3,130.3,89.1,130.9z M101.7,136.2
		c0,1-0.8,1.7-1.7,1.7s-1.7-0.8-1.7-1.7v-3.5c0-1,0.8-1.7,1.7-1.7s1.7,0.8,1.7,1.7V136.2z M114.5,135c-0.4,0.2-0.9,0.2-1.3,0
		s-0.8-0.5-0.9-0.9l-1.3-3.2c-0.4-0.9,0.1-1.9,0.9-2.2c0.9-0.4,1.9,0.1,2.2,0.9l1.3,3.2C115.8,133.6,115.4,134.6,114.5,135
		L114.5,135z M100,127.5c-12.6,0-23.7-8.6-26.8-20.9c-0.4-2-0.7-3.9-0.6-6l-1.4,2.3c-0.5,0.8-1.5,1-2.3,0.5s-1.1-1.5-0.6-2.3
		l3.7-6.1c0.5-0.8,1.3-1.2,2.2-1.2c0.9,0,1.8,0.5,2.2,1.2l3.7,6.1c0.3,0.5,0.3,1.2,0,1.7s-0.9,0.9-1.5,0.9c-0.6,0-1.2-0.3-1.5-0.8
		l-1-1.6c0.6,12.8,11.2,22.8,24,22.8c10,0,18.9-6.2,22.5-15.4c0.4-0.9,1.3-1.3,2.2-1s1.3,1.3,1,2.2
		C121.6,120.5,111.4,127.5,100,127.5z M95.9,91.5c-1.4-1.6-3.6-2.2-5.7-1.7c-2.2,0.5-3.9,2.5-4,4.8c0,0.6-0.3,1.2-0.8,1.5
		c-0.5,0.4-1.2,0.4-1.7,0.1c-0.5-0.3-0.9-0.8-1-1.4c0.2-9.4,12-11.1,16-5.3c1.6,2.5,1.6,5.6,0,8.1c-2,3.3-6,4.8-9.5,8
		c-1,0.8-1.8,1.8-2.5,2.9h11.6c1,0,1.7,0.8,1.7,1.7c0,0.9-0.8,1.7-1.7,1.7H84.5c-1,0-1.7-0.8-1.7-1.7c0-4.6,4.9-8.1,8.7-10.6
		c1.7-1,3.2-2.2,4.4-3.8C96.7,94.5,96.7,92.8,95.9,91.5L95.9,91.5z M119,101.7c1,0,1.7,0.8,1.7,1.7c0,0.9-0.8,1.7-1.7,1.7h-3.5v5.2
		c0,1-0.8,1.7-1.7,1.7s-1.7-0.8-1.7-1.7v-5.2h-10.4c-0.7,0-1.3-0.4-1.5-1c-0.3-0.6-0.2-1.3,0.2-1.8l12.1-15.5
		c0.4-0.6,1.2-0.8,1.9-0.6c0.7,0.2,1.2,0.9,1.2,1.6v13.8L119,101.7L119,101.7z M126.8,126.8c-0.7,0.7-1.8,0.7-2.4,0l-2.4-2.4
		c-0.6-0.7-0.6-1.8,0-2.4s1.7-0.7,2.4,0l2.4,2.4C127.5,125,127.5,126.1,126.8,126.8L126.8,126.8z M123.6,103.1L120,97
		c-0.5-0.8-0.2-1.9,0.6-2.4c0.8-0.5,1.9-0.2,2.4,0.6l0.6,1.1c-1.5-11.8-11.7-20.6-23.6-20.5c-9.4,0-17.9,5.5-21.9,14
		c-0.3,0.6-0.8,1-1.4,1s-1.2-0.2-1.6-0.7c-0.4-0.5-0.4-1.2-0.1-1.8c4.5-9.7,14.3-16,25-16c14.4-0.2,26.4,11,27.2,25.4l1.6-2.6
		c0.3-0.6,0.9-0.9,1.5-0.9s1.2,0.4,1.5,0.9s0.3,1.2-0.1,1.8l-3.7,6.1c-0.5,0.8-1.3,1.2-2.2,1.2S124.1,103.8,123.6,103.1L123.6,103.1
		z M135,114.5c-0.4,0.9-1.4,1.3-2.2,0.9l-3.2-1.3c-0.9-0.4-1.3-1.4-0.9-2.2c0.4-0.9,1.4-1.3,2.2-0.9l3.2,1.3
		C135,112.6,135.4,113.6,135,114.5L135,114.5z M134.1,87.7c-3.5,1.4-3.4,1.4-3.8,1.4c-0.8,0-1.5-0.6-1.7-1.4c-0.2-0.8,0.3-1.6,1-1.9
		l3.2-1.3c0.9-0.4,1.9,0.1,2.2,0.9C135.4,86.3,135,87.3,134.1,87.7z M112.1,101.7v-8.8l-6.8,8.8H112.1z"/>
	<linearGradient id="SVGID_2_" gradientUnits="userSpaceOnUse" x1="65.6532" y1="56.0175" x2="134.3307" y2="124.695">
		<stop  offset="0" style="stop-color:#ECBA49"/>
		<stop  offset="0.174" style="stop-color:#9D7314"/>
		<stop  offset="0.5732" style="stop-color:#CC9E34"/>
		<stop  offset="0.6401" style="stop-color:#B78A25"/>
		<stop  offset="0.8822" style="stop-color:#B78A25"/>
		<stop  offset="1" style="stop-color:#7F5800"/>
	</linearGradient>
	<path style="fill:url(#SVGID_2_);" d="M100,53.4c2.9,2.7,7,6,12.1,8.8c-1.1,0.5-2.1,1.4-2.6,2.6l-1.3,3.2l0,0l0,0
		c-0.3,0.8-0.4,1.6-0.3,2.4c-1.2-0.3-2.5-0.6-3.8-0.7c0.4-0.7,0.7-1.5,0.7-2.4v-3.5c0-2.6-2.1-4.7-4.7-4.7s-4.7,2.1-4.7,4.7v3.5
		c0,0.9,0.3,1.7,0.7,2.4c-1.3,0.2-2.6,0.4-3.8,0.8c0.1-0.8,0-1.7-0.3-2.5l-1.3-3.2c-0.5-1.2-1.4-2.1-2.6-2.6c0,0,0,0,0,0
		C93.1,59.4,97.2,56.1,100,53.4 M118.3,65c4.4,1.6,9.3,2.7,14.6,2.7c2.4,0,4.8-0.2,7.2-0.7v27.6c0,5.9-0.9,11.4-2.8,16.5
		c-0.5-0.7-1.2-1.3-2.1-1.7l-3.2-1.3c-0.6-0.2-1.2-0.3-1.8-0.3c-0.5,0-1.1,0.1-1.6,0.3c-0.1-0.2-0.2-0.5-0.3-0.7
		c-0.1-0.2-0.2-0.4-0.3-0.5c1-0.5,1.9-1.2,2.5-2.2l3.6-6c0.9-1.4,1-3.2,0.2-4.8c-0.5-1-1.3-1.7-2.2-2.1c0.4-0.1,0.8-0.3,1.5-0.6
		l1.6-0.7c1.2-0.5,2.1-1.4,2.6-2.6c0.5-1.2,0.4-2.4,0-3.6c-0.7-1.8-2.4-2.9-4.4-2.9c-0.6,0-1.2,0.1-1.8,0.4l-3.2,1.3
		c-0.8,0.3-1.5,0.9-2,1.6c-0.6-1.1-1.4-2.2-2.1-3.3c0.8-0.2,1.6-0.6,2.2-1.2l0,0l0,0l2.4-2.4c1.2-1.2,1.7-2.9,1.3-4.6
		c-0.4-1.7-1.7-3-3.4-3.4c-0.4-0.1-0.8-0.2-1.2-0.2c-1.3,0-2.5,0.5-3.4,1.4l-2.5,2.5c-0.6,0.6-1,1.4-1.2,2.1c-1-0.8-2.1-1.5-3.2-2.2
		c0.7-0.5,1.2-1.2,1.5-2l1.3-3.2C118.7,67.2,118.7,66,118.3,65 M81.7,65c-0.4,1.1-0.3,2.3,0.1,3.3l1.3,3.2c0.3,0.8,0.9,1.5,1.6,2
		c-1.1,0.7-2.2,1.4-3.2,2.2c-0.2-0.8-0.6-1.6-1.3-2.2L77.7,71c-0.9-0.9-2.1-1.3-3.3-1.3c-1.3,0-2.4,0.5-3.3,1.3
		c-0.9,0.9-1.4,2.1-1.4,3.3c0,1.3,0.5,2.5,1.4,3.4l2.4,2.4c0.6,0.6,1.4,1.1,2.2,1.3c-0.8,1-1.5,2.1-2.2,3.2c-0.5-0.7-1.2-1.2-2-1.6
		l-3.2-1.3c-0.6-0.2-1.2-0.3-1.8-0.3c-1.9,0-3.6,1.1-4.4,2.9c-0.5,1.1-0.5,2.4-0.1,3.5l0,0.1l0,0.1c0.5,1.2,1.4,2.1,2.6,2.6
		c0.7,0.3,1.3,0.5,1.8,0.7c1.8,0.8,2.2,0.9,3.2,0.9c0.3,0,0.7,0,1-0.1c-0.5,0.4-1,0.9-1.4,1.5l-3.7,6.1l0,0.1l0,0.1
		c-1.2,2.2-0.5,5,1.7,6.3c0.7,0.4,1.6,0.7,2.4,0.7c0.1,0,0.3,0,0.4,0c0,0.2,0.1,0.4,0.1,0.6l0,0l0,0c0,0.1,0.1,0.3,0.1,0.4
		c-0.2,0-0.5-0.1-0.7-0.1c-0.6,0-1.2,0.1-1.8,0.4l-3.2,1.3c-0.9,0.4-1.6,1-2.1,1.7c-1.8-5.1-2.7-10.6-2.7-16.5V67
		c2.4,0.4,4.8,0.7,7.2,0.7C72.4,67.7,77.3,66.6,81.7,65 M100.3,78.8c4.8,0,9.2,1.6,12.7,4.4c-1.2,0.2-2.2,0.8-2.9,1.8l-7.2,9.2
		c0.1-2.2-0.4-4.4-1.7-6.3l0,0l0,0c-2-2.9-5.5-4.7-9.5-4.7c-2.3,0-4.7,0.6-6.7,1.9c3.9-3.9,9.3-6.2,14.9-6.2L100.3,78.8 M118.5,89.9
		c0.3,0.6,0.6,1.3,0.9,1.9c-0.1,0.1-0.2,0.1-0.3,0.2c-0.2,0.1-0.4,0.2-0.5,0.4V89.9 M80,92.3c-0.2,0.8-0.2,1.6-0.3,2.4l0,0.1l0,0.1
		L79,93.6c-0.1-0.1-0.1-0.2-0.2-0.3C79.3,93,79.7,92.7,80,92.3 M91.6,92.6c0.7,0,1.3,0.2,1.8,0.7c0.1,0.3,0.1,0.6-0.1,0.9
		c-0.9,1.2-2,2.1-3.4,2.9l-0.1,0.1l-0.1,0.1c-1.9,1.3-4.4,3-6.5,5.3c0.1-1-0.1-1.9-0.7-2.8l-0.6-1c0.1,0.1,0.2,0.1,0.4,0.2
		c0.6,0.3,1.4,0.5,2.1,0.5c0.9,0,1.9-0.3,2.6-0.8c1.3-0.9,2.1-2.4,2.1-4c0.1-0.9,0.7-1.7,1.6-1.9l0.1,0l0.1,0
		C91.2,92.6,91.4,92.6,91.6,92.6 M97,103.6c0,0.6,0.2,1.2,0.4,1.8c0,0,0,0.1,0.1,0.1h-3.3c0.3-0.2,0.6-0.4,0.9-0.6
		C95.7,104.6,96.4,104.1,97,103.6 M80.6,106.3c-0.1,0.3-0.3,0.7-0.4,1c-0.1-0.3-0.2-0.5-0.3-0.8C80.2,106.5,80.4,106.4,80.6,106.3
		 M119.5,108.1c-0.3,0.7-0.6,1.4-1,2.1v-2.1h0.5C119.1,108.1,119.3,108.1,119.5,108.1 M109.1,108.1v2.2c0,2.6,2.1,4.7,4.7,4.7
		c0.4,0,0.8-0.1,1.2-0.1c-3.9,3.9-9.2,6.2-15,6.2l-0.1,0c-5.7,0-11-2.3-14.7-6.1h13.1c2.6,0,4.7-2.1,4.7-4.7c0-0.8-0.2-1.5-0.5-2.2
		H109.1 M73.5,115.3c0.7,1.1,1.4,2.2,2.2,3.3c-0.8,0.2-1.6,0.6-2.2,1.2l0,0l0,0l-2.4,2.4c-0.5,0.5-0.9,1.2-1.2,1.9
		c-1.4-1.8-2.7-3.7-3.8-5.6c0.2,0,0.3,0,0.5,0c1,0,1.3-0.1,3.4-1l1.6-0.7C72.4,116.5,73,116,73.5,115.3 M126.4,115.3
		c0.5,0.7,1.2,1.2,2,1.6l3.2,1.3c0.6,0.2,1.2,0.3,1.8,0.3c0.1,0,0.3,0,0.4,0c-1.1,1.9-2.4,3.7-3.8,5.6c-0.2-0.7-0.6-1.3-1.2-1.9
		l-2.5-2.5c-0.6-0.6-1.4-1-2.2-1.2C125.1,117.5,125.8,116.4,126.4,115.3 M81.4,124.2c1,0.8,2.1,1.5,3.3,2.2c-0.7,0.5-1.2,1.2-1.6,2
		l-1.3,3.2c-0.6,1.4-0.4,3,0.4,4.2c-2.5-1.9-4.7-3.7-6.7-5.7c1.4-0.3,2.2-1.1,3.6-2.6c0.3-0.3,0.7-0.7,1.2-1.2
		C80.8,125.8,81.2,125.1,81.4,124.2 M118.6,124.2c0.2,0.8,0.6,1.5,1.2,2.1l0,0l0,0l2.5,2.5c0.6,0.6,1.4,1,2.3,1.2
		c-2,1.9-4.2,3.8-6.6,5.6c0.1-0.2,0.2-0.3,0.3-0.5c0.5-1.2,0.5-2.5,0-3.6l-1.3-3.1c-0.3-0.8-0.9-1.5-1.6-2
		C116.5,125.8,117.5,125,118.6,124.2 M92.1,129.5c1.2,0.3,2.5,0.6,3.8,0.8c-0.4,0.7-0.7,1.6-0.7,2.4v3.5c0,2.6,2.1,4.7,4.7,4.7
		s4.7-2.1,4.7-4.7v-3.5c0-0.9-0.3-1.7-0.7-2.4c1.3-0.2,2.6-0.4,3.8-0.8c-0.1,0.8,0,1.7,0.3,2.5l1.3,3.2c0.5,1.2,1.4,2.1,2.6,2.6
		c0.6,0.2,1.2,0.4,1.8,0.4c0.3,0,0.7,0,1-0.1c-4.3,3-9.3,5.9-14.8,8.8c-5.7-2.9-10.6-5.8-14.9-8.8c0.4,0.1,0.7,0.1,1.1,0.1
		c0.2,0,0.4,0,0.6,0c1.7-0.2,3.1-1.3,3.8-2.9l1.3-3.2C92.2,131.2,92.3,130.3,92.1,129.5 M100,50c-0.5,0-0.9,0.2-1.3,0.5
		C95,54.1,83.2,64.7,67.1,64.7c-2.6,0-5.3-0.3-8.1-0.9c-0.1,0-0.3,0-0.4,0c-0.4,0-0.8,0.1-1.1,0.4c-0.4,0.3-0.6,0.8-0.7,1.3v29.1
		c0,27.1,18.1,42.9,42.3,55.1c0.3,0.1,0.5,0.2,0.8,0.2s0.6-0.1,0.8-0.2c24.2-12.3,42.3-28.1,42.3-55.1V65.5c0-0.5-0.3-1-0.7-1.3
		c-0.3-0.2-0.7-0.4-1.1-0.4c-0.1,0-0.3,0-0.4,0c-2.8,0.6-5.5,0.9-8,0.9c-16.1,0-27.9-10.6-31.6-14.2C100.9,50.1,100.5,50,100,50
		L100,50z M100,68.9c-0.9,0-1.7-0.8-1.7-1.7v-3.5c0-1,0.8-1.7,1.7-1.7s1.7,0.8,1.7,1.7v3.5C101.7,68.2,100.9,68.9,100,68.9L100,68.9
		z M87.5,71.4c-0.1,0-0.1,0-0.2,0c-0.6-0.1-1.1-0.5-1.4-1.1l-1.3-3.2c-0.4-0.9,0.1-1.9,0.9-2.3c0.2-0.1,0.4-0.1,0.7-0.1
		s0.4,0,0.7,0.1c0.4,0.2,0.8,0.5,0.9,0.9l1.3,3.2c0.2,0.6,0.2,1.2-0.2,1.7C88.5,71.2,88,71.4,87.5,71.4L87.5,71.4z M112.6,71.4
		c-0.5,0-1-0.2-1.4-0.7c-0.4-0.5-0.4-1.1-0.2-1.7l1.3-3.2c0.3-0.7,0.9-1.1,1.6-1.1c0.2,0,0.4,0,0.6,0.1c0.9,0.4,1.3,1.4,0.9,2.2
		l-1.3,3.2c-0.2,0.6-0.8,1-1.4,1.1C112.7,71.4,112.6,71.4,112.6,71.4L112.6,71.4z M76.5,90.9c-0.6,0-1.1-0.3-1.4-0.7
		c-0.4-0.5-0.4-1.2-0.1-1.8c4.5-9.7,14.3-16,25-16c0.1,0,0.2,0,0.3,0c14.3,0,26.1,11.1,26.9,25.4l1.6-2.6c0.3-0.6,0.9-0.9,1.5-0.9
		s1.2,0.4,1.5,0.9c0.3,0.6,0.3,1.2-0.1,1.8l-3.7,6.1c-0.5,0.8-1.3,1.2-2.2,1.2s-1.7-0.5-2.2-1.2L120,97c-0.5-0.8-0.2-1.9,0.6-2.4
		c0.3-0.2,0.6-0.2,0.9-0.2c0.6,0,1.1,0.3,1.5,0.8l0.6,1.1c-1.5-11.7-11.5-20.5-23.3-20.5c-0.1,0-0.2,0-0.4,0
		c-9.4,0-17.9,5.5-21.9,14c-0.3,0.6-0.8,1-1.4,1C76.6,90.9,76.6,90.9,76.5,90.9L76.5,90.9z M123.2,78.5c-0.4,0-0.9-0.2-1.2-0.5
		c-0.7-0.7-0.7-1.8,0-2.4l2.4-2.4c0.3-0.3,0.8-0.5,1.2-0.5c0.1,0,0.3,0,0.4,0.1c0.6,0.2,1.1,0.6,1.2,1.2s0,1.2-0.5,1.7l-2.4,2.4
		C124,78.3,123.6,78.5,123.2,78.5L123.2,78.5z M76.9,78.6c-0.5,0-0.9-0.2-1.2-0.5l-2.4-2.4c-0.7-0.7-0.7-1.8,0-2.4
		c0.3-0.3,0.8-0.5,1.2-0.5s0.9,0.2,1.2,0.5l2.4,2.4c0.4,0.4,0.6,1.1,0.5,1.7c-0.2,0.6-0.6,1.1-1.2,1.2C77.2,78.5,77,78.6,76.9,78.6
		L76.9,78.6z M130.2,89.1c-0.8,0-1.5-0.6-1.7-1.4c-0.2-0.8,0.3-1.6,1-1.9l3.2-1.3c0.2-0.1,0.4-0.1,0.7-0.1c0.7,0,1.3,0.4,1.6,1.1
		c0.4,0.9,0,1.9-0.9,2.3C130.6,89.1,130.7,89.1,130.2,89.1L130.2,89.1z M69.7,89.2c-0.5,0-0.5-0.1-3.8-1.4c-0.4-0.2-0.8-0.5-0.9-0.9
		c-0.2-0.4-0.2-0.9,0-1.3c0.3-0.7,0.9-1.1,1.6-1.1c0.2,0,0.4,0,0.6,0.1l3.2,1.3c0.8,0.3,1.2,1.1,1,1.9
		C71.3,88.6,70.6,89.2,69.7,89.2L69.7,89.2z M84.5,96.4c-0.3,0-0.5-0.1-0.8-0.2c-0.5-0.3-0.9-0.8-1-1.4c0.1-5.8,4.6-8.6,9-8.6
		c2.7,0,5.4,1.1,7,3.4c1.6,2.5,1.6,5.6,0,8.1c-2,3.3-6,4.8-9.5,8c-1,0.8-1.8,1.8-2.5,2.9h11.6c1,0,1.7,0.8,1.7,1.7s-0.8,1.7-1.7,1.7
		H84.5c-1,0-1.7-0.8-1.7-1.7c0-4.6,4.9-8.1,8.7-10.6c1.7-1,3.2-2.2,4.4-3.8c0.9-1.3,0.9-3.1,0.1-4.4c-1.1-1.2-2.6-1.9-4.2-1.9
		c-0.5,0-1,0.1-1.5,0.2c-2.2,0.5-3.9,2.5-4,4.8c0,0.6-0.3,1.2-0.8,1.5C85.2,96.3,84.8,96.4,84.5,96.4L84.5,96.4z M101.7,105.1
		c-0.7,0-1.3-0.4-1.5-1c-0.3-0.6-0.2-1.3,0.2-1.8l12.1-15.5c0.3-0.4,0.8-0.7,1.3-0.7c0.2,0,0.4,0,0.6,0.1c0.7,0.2,1.2,0.9,1.2,1.6
		v13.8h3.4v0c1,0,1.7,0.8,1.7,1.7c0,0.9-0.8,1.7-1.7,1.7h-3.5v5.2c0,1-0.8,1.7-1.7,1.7c-0.9,0-1.7-0.8-1.7-1.7v-5.2H101.7
		L101.7,105.1z M69.8,103.8c-0.3,0-0.6-0.1-0.9-0.2c-0.8-0.5-1.1-1.5-0.6-2.3l3.7-6.1c0.5-0.8,1.3-1.2,2.2-1.2s1.8,0.5,2.2,1.2
		l3.7,6.1c0.3,0.5,0.3,1.2,0,1.7c-0.3,0.5-0.9,0.9-1.5,0.9s-1.2-0.3-1.5-0.8l-1-1.6c0.6,12.8,11.1,22.8,23.8,22.8c0,0,0.1,0,0.1,0
		c10,0,18.9-6.2,22.5-15.4c0.3-0.7,0.9-1.1,1.6-1.1c0.2,0,0.4,0,0.6,0.1c0.9,0.3,1.3,1.3,1,2.2c-4.2,10.6-14.4,17.6-25.7,17.6
		c-12.6,0-23.7-8.6-26.8-20.9c-0.4-2-0.7-3.9-0.6-6l-1.4,2.3C70.9,103.5,70.3,103.8,69.8,103.8L69.8,103.8z M66.5,115.5
		c-0.8,0-1.5-0.6-1.7-1.4c-0.2-0.8,0.3-1.6,1-1.9l3.2-1.3c0.2-0.1,0.4-0.1,0.7-0.1c0.7,0,1.3,0.4,1.6,1.1c0.4,0.9,0,1.9-0.9,2.3
		C66.9,115.5,67,115.5,66.5,115.5L66.5,115.5z M133.4,115.5c-0.2,0-0.4,0-0.6-0.1l-3.2-1.3c-0.9-0.4-1.3-1.4-0.9-2.2
		c0.3-0.7,0.9-1.1,1.6-1.1c0.2,0,0.4,0,0.6,0.1l3.2,1.3c0.9,0.4,1.3,1.3,0.9,2.2C134.8,115.1,134.1,115.5,133.4,115.5L133.4,115.5z
		 M125.6,127.3c-0.4,0-0.9-0.2-1.2-0.5l-2.4-2.4c-0.6-0.7-0.6-1.8,0-2.4c0.3-0.3,0.8-0.5,1.2-0.5c0.4,0,0.9,0.2,1.2,0.5l2.4,2.4
		c0.7,0.7,0.7,1.8,0,2.4C126.5,127.1,126,127.3,125.6,127.3L125.6,127.3z M74.4,127.3c-0.7,0-1.3-0.4-1.6-1.1
		c-0.3-0.6-0.1-1.4,0.4-1.9l2.4-2.4c0.3-0.3,0.8-0.5,1.2-0.5c0.4,0,0.9,0.2,1.2,0.5c0.7,0.6,0.7,1.7,0,2.4
		C75.4,127,75.3,127.3,74.4,127.3L74.4,127.3z M113.8,135.1c-0.2,0-0.4,0-0.7-0.1c-0.4-0.2-0.8-0.5-0.9-0.9l-1.3-3.2
		c-0.4-0.9,0.1-1.9,0.9-2.2c0.2-0.1,0.4-0.1,0.7-0.1c0.7,0,1.3,0.4,1.6,1.1l1.3,3.2c0.4,0.9,0,1.9-0.9,2.2
		C114.3,135.1,114.1,135.1,113.8,135.1L113.8,135.1z M86.2,135.1c-0.5,0-1-0.2-1.4-0.7c-0.4-0.5-0.5-1.1-0.2-1.7l1.3-3.2
		c0.2-0.6,0.8-1,1.4-1.1c0.1,0,0.1,0,0.2,0c0.5,0,1,0.2,1.4,0.7c0.4,0.5,0.5,1.2,0.2,1.7l-1.3,3.2c-0.2,0.6-0.8,1-1.4,1.1
		C86.3,135.1,86.2,135.1,86.2,135.1L86.2,135.1z M100,137.9c-0.9,0-1.7-0.8-1.7-1.7v-3.5c0-1,0.8-1.7,1.7-1.7s1.7,0.8,1.7,1.7v3.5
		C101.7,137.1,100.9,137.9,100,137.9L100,137.9z M112.1,92.9l-6.8,8.8h6.8V92.9L112.1,92.9z"/>
	<path style="fill:#5E4C12;" d="M100,50c0.5,0,0.9,0.2,1.3,0.5c3.8,3.6,15.5,14.2,31.6,14.2c2.6,0,5.3-0.3,8-0.9c0.1,0,0.3,0,0.4,0
		c0.4,0,0.8,0.1,1.1,0.4c0.4,0.3,0.7,0.8,0.7,1.3v29.1c0,27-18.1,42.9-42.3,55.1c-0.3,0.1-0.5,0.2-0.8,0.2c-0.3,0-0.6-0.1-0.8-0.2
		C75,137.5,56.9,121.7,56.9,94.6V65.5c0-0.5,0.2-1,0.7-1.3c0.3-0.2,0.7-0.4,1.1-0.4c0.1,0,0.3,0,0.4,0c2.8,0.6,5.5,0.9,8.1,0.9
		c16.1,0,27.9-10.6,31.6-14.2C99.1,50.1,99.5,50,100,50 M100,68.9c0.9,0,1.7-0.8,1.7-1.7v-3.5c0-0.9-0.8-1.7-1.7-1.7
		s-1.7,0.8-1.7,1.7v3.5C98.3,68.1,99.1,68.9,100,68.9 M87.5,71.4c0.5,0,1.1-0.2,1.4-0.7c0.4-0.5,0.5-1.2,0.2-1.7l-1.3-3.2
		c-0.2-0.4-0.5-0.8-0.9-0.9c-0.2-0.1-0.4-0.1-0.7-0.1s-0.4,0-0.7,0.1c-0.9,0.4-1.3,1.4-0.9,2.3l1.3,3.2c0.2,0.6,0.8,1,1.4,1.1
		C87.3,71.4,87.4,71.4,87.5,71.4 M112.6,71.4c0.1,0,0.1,0,0.2,0c0.6-0.1,1.1-0.5,1.4-1.1l1.3-3.2c0.4-0.9-0.1-1.9-0.9-2.2
		c-0.2-0.1-0.4-0.1-0.6-0.1c-0.7,0-1.3,0.4-1.6,1.1l-1.3,3.2c-0.2,0.6-0.1,1.2,0.2,1.7C111.5,71.2,112,71.4,112.6,71.4 M76.5,90.9
		c0.1,0,0.1,0,0.2,0c0.6-0.1,1.2-0.4,1.4-1c4-8.5,12.5-14,21.9-14c0.1,0,0.2,0,0.4,0c11.8,0,21.8,8.8,23.3,20.5l-0.6-1.1
		c-0.3-0.5-0.9-0.8-1.5-0.8c-0.3,0-0.6,0.1-0.9,0.2c-0.8,0.5-1.1,1.5-0.6,2.4l3.7,6.1c0.4,0.8,1.3,1.2,2.2,1.2s1.8-0.5,2.2-1.2
		l3.7-6.1c0.4-0.5,0.4-1.2,0.1-1.8c-0.3-0.6-0.9-0.9-1.5-0.9s-1.2,0.4-1.5,0.9l-1.6,2.6c-0.8-14.3-12.6-25.4-26.9-25.4
		c-0.1,0-0.2,0-0.3,0c-10.7,0-20.5,6.2-25,16c-0.3,0.6-0.2,1.2,0.1,1.8C75.4,90.6,76,90.9,76.5,90.9 M123.2,78.5
		c0.4,0,0.9-0.2,1.2-0.5l2.4-2.4c0.4-0.4,0.6-1.1,0.5-1.7s-0.6-1.1-1.2-1.2c-0.1,0-0.3-0.1-0.4-0.1c-0.5,0-0.9,0.2-1.2,0.5l-2.4,2.4
		c-0.6,0.7-0.6,1.7,0,2.4C122.3,78.3,122.7,78.5,123.2,78.5 M76.9,78.6c0.1,0,0.3,0,0.4-0.1c0.6-0.2,1.1-0.6,1.2-1.2
		c0.2-0.6,0-1.2-0.5-1.7l-2.4-2.4c-0.3-0.3-0.8-0.5-1.2-0.5s-0.9,0.2-1.2,0.5c-0.7,0.7-0.7,1.8,0,2.4l2.4,2.4
		C76,78.4,76.4,78.6,76.9,78.6 M130.2,89.1c0.4,0,0.4,0,3.8-1.4c0.9-0.4,1.3-1.4,0.9-2.3c-0.3-0.7-0.9-1.1-1.6-1.1
		c-0.2,0-0.4,0-0.7,0.1l-3.2,1.3c-0.8,0.3-1.2,1.1-1,1.9C128.7,88.6,129.4,89.1,130.2,89.1 M69.7,89.2c0.8,0,1.5-0.6,1.7-1.4
		c0.2-0.8-0.3-1.6-1-1.9l-3.2-1.3c-0.2-0.1-0.4-0.1-0.6-0.1c-0.7,0-1.3,0.4-1.6,1.1c-0.2,0.4-0.2,0.9,0,1.3c0.2,0.4,0.5,0.8,0.9,0.9
		C69.2,89.1,69.2,89.2,69.7,89.2 M84.5,96.4c0.3,0,0.7-0.1,1-0.3c0.5-0.3,0.8-0.9,0.8-1.5c0.1-2.3,1.7-4.3,4-4.8
		c0.5-0.1,1-0.2,1.5-0.2c1.6,0,3.1,0.7,4.2,1.9c0.8,1.3,0.8,3.1-0.1,4.4c-1.2,1.5-2.7,2.8-4.4,3.8c-3.7,2.6-8.7,6.1-8.7,10.6
		c0,0.9,0.8,1.7,1.7,1.7h13.8c0.9,0,1.7-0.8,1.7-1.7s-0.8-1.7-1.7-1.7H86.7c0.7-1.1,1.5-2.1,2.5-2.9c3.5-3.2,7.5-4.7,9.5-8
		c1.6-2.5,1.6-5.7,0-8.1c-1.5-2.2-4.2-3.4-7-3.4c-4.4,0-8.9,2.9-9,8.6c0,0.6,0.4,1.2,1,1.4C84,96.3,84.2,96.4,84.5,96.4
		 M101.7,105.1h10.4v5.2c0,0.9,0.8,1.7,1.7,1.7c0.9,0,1.7-0.8,1.7-1.7v-5.2h3.5c0.9,0,1.7-0.8,1.7-1.7c0-0.9-0.8-1.7-1.7-1.7v0h-3.4
		V87.9c0-0.7-0.5-1.4-1.2-1.6c-0.2-0.1-0.4-0.1-0.6-0.1c-0.5,0-1,0.2-1.3,0.7l-12.1,15.5c-0.4,0.5-0.5,1.2-0.2,1.8
		C100.4,104.8,101.1,105.1,101.7,105.1 M69.8,103.8c0.6,0,1.1-0.3,1.4-0.8l1.4-2.3c0,2,0.2,4,0.6,6c3.1,12.3,14.1,20.8,26.8,20.9
		c11.4,0,21.6-7,25.7-17.6c0.3-0.9-0.1-1.9-1-2.2c-0.2-0.1-0.4-0.1-0.6-0.1c-0.7,0-1.3,0.4-1.6,1.1c-3.6,9.3-12.6,15.4-22.5,15.4
		c0,0-0.1,0-0.1,0c-12.8,0-23.3-10-23.8-22.8l1,1.6c0.3,0.5,0.9,0.8,1.5,0.8s1.2-0.4,1.5-0.9s0.3-1.2,0-1.7l-3.7-6.1
		c-0.5-0.8-1.3-1.2-2.2-1.2s-1.8,0.5-2.2,1.2l-3.7,6.1c-0.4,0.8-0.2,1.8,0.6,2.3C69.2,103.7,69.5,103.8,69.8,103.8 M66.5,115.5
		c0.4,0,0.4,0,3.8-1.4c0.9-0.4,1.3-1.4,0.9-2.3c-0.3-0.7-0.9-1.1-1.6-1.1c-0.2,0-0.4,0-0.7,0.1l-3.2,1.3c-0.8,0.3-1.2,1.1-1,1.9
		C65,115,65.7,115.5,66.5,115.5 M133.4,115.5c0.7,0,1.3-0.4,1.6-1.1c0.4-0.9-0.1-1.9-0.9-2.2l-3.2-1.3c-0.2-0.1-0.4-0.1-0.6-0.1
		c-0.7,0-1.3,0.4-1.6,1.1c-0.4,0.9,0.1,1.9,0.9,2.2l3.2,1.3C133,115.5,133.2,115.5,133.4,115.5 M125.6,127.3c0.4,0,0.9-0.2,1.2-0.5
		c0.7-0.7,0.7-1.8,0-2.4l-2.4-2.4c-0.3-0.3-0.8-0.5-1.2-0.5c-0.4,0-0.9,0.2-1.2,0.5c-0.7,0.7-0.7,1.7,0,2.4l2.4,2.4
		C124.7,127.1,125.2,127.3,125.6,127.3 M74.4,127.3c0.9,0,1-0.3,3.7-2.9c0.7-0.7,0.6-1.8,0-2.4c-0.3-0.3-0.8-0.5-1.2-0.5
		c-0.4,0-0.9,0.2-1.2,0.5l-2.4,2.4c-0.5,0.5-0.6,1.2-0.4,1.9C73.1,126.9,73.7,127.3,74.4,127.3 M113.8,135.1c0.2,0,0.4,0,0.7-0.1
		c0.9-0.4,1.3-1.4,0.9-2.2l-1.3-3.2c-0.3-0.7-0.9-1.1-1.6-1.1c-0.2,0-0.4,0-0.7,0.1c-0.9,0.4-1.3,1.4-0.9,2.2l1.3,3.2
		c0.2,0.4,0.5,0.8,0.9,0.9C113.4,135.1,113.6,135.1,113.8,135.1 M86.2,135.1c0.1,0,0.1,0,0.2,0c0.6-0.1,1.1-0.5,1.4-1.1l1.3-3.2
		c0.2-0.6,0.2-1.2-0.2-1.7c-0.3-0.4-0.9-0.7-1.4-0.7c-0.1,0-0.1,0-0.2,0c-0.6,0.1-1.1,0.5-1.4,1.1l-1.3,3.2
		c-0.2,0.6-0.1,1.2,0.2,1.7C85.1,134.9,85.6,135.1,86.2,135.1 M100,137.9c0.9,0,1.7-0.8,1.7-1.7v-3.5c0-0.9-0.8-1.7-1.7-1.7
		s-1.7,0.8-1.7,1.7v3.5C98.3,137.1,99.1,137.9,100,137.9 M112.1,92.9v8.8h-6.8L112.1,92.9 M100,49c-0.7,0-1.4,0.3-2,0.8
		C92.7,55,81.5,63.7,67.1,63.7c-2.6,0-5.2-0.3-7.8-0.9c-0.2,0-0.4-0.1-0.6-0.1c-0.6,0-1.2,0.2-1.7,0.6c-0.6,0.5-1,1.2-1.1,2.1
		l0,29.2c0,30.4,22.9,45.9,42.8,56c0.4,0.2,0.8,0.3,1.3,0.3s0.9-0.1,1.3-0.3c19.9-10.1,42.8-25.6,42.8-56V65.5
		c0-0.9-0.4-1.7-1.1-2.1c-0.5-0.4-1.1-0.6-1.7-0.6c-0.2,0-0.4,0-0.6,0.1c-2.6,0.6-5.2,0.9-7.8,0.9c-14.4,0-25.6-8.7-30.9-13.9
		C101.4,49.2,100.7,49,100,49L100,49z M100,67.9c-0.4,0-0.7-0.3-0.7-0.7v-3.5c0-0.4,0.3-0.7,0.7-0.7c0.4,0,0.7,0.3,0.7,0.7v3.5
		C100.7,67.6,100.4,67.9,100,67.9L100,67.9z M87.5,70.4C87.4,70.4,87.4,70.4,87.5,70.4c-0.3,0-0.6-0.2-0.7-0.5l-1.3-3.2
		c-0.1-0.2-0.1-0.4,0-0.6c0.1-0.2,0.2-0.3,0.4-0.4c0.1,0,0.2-0.1,0.3-0.1c0.1,0,0.2,0,0.3,0.1c0.2,0.1,0.3,0.2,0.4,0.4l1.3,3.2
		c0.1,0.2,0.1,0.5-0.1,0.7C87.9,70.3,87.7,70.4,87.5,70.4L87.5,70.4z M112.6,70.4c-0.2,0-0.4-0.1-0.6-0.3c-0.1-0.2-0.2-0.5-0.1-0.7
		l1.3-3.2c0.1-0.3,0.4-0.4,0.7-0.4c0.1,0,0.2,0,0.3,0.1c0.4,0.2,0.5,0.6,0.4,0.9l-1.3,3.2C113.1,70.2,112.9,70.4,112.6,70.4
		C112.6,70.4,112.6,70.4,112.6,70.4L112.6,70.4z M76.5,89.9c-0.2,0-0.5-0.1-0.6-0.3c-0.1-0.2-0.2-0.5,0-0.7
		c4.4-9.4,13.8-15.4,24.1-15.5l0.3,0c13.8,0,25.1,10.8,25.9,24.5l0.2,3.2l1.7-2.8l1.6-2.6l0,0l0,0c0.1-0.2,0.4-0.4,0.6-0.4
		s0.5,0.1,0.6,0.4c0.1,0.3,0.1,0.5,0,0.7l0,0l0,0l-3.7,6.1c-0.3,0.5-0.8,0.8-1.4,0.8c-0.6,0-1.1-0.3-1.3-0.7l-3.7-6.1
		c-0.1-0.2-0.1-0.4-0.1-0.6c0-0.2,0.2-0.3,0.3-0.4c0.1-0.1,0.2-0.1,0.4-0.1c0.3,0,0.5,0.1,0.6,0.3l0.6,1.1l2.5,4.2l-0.6-4.8
		c-1.5-12.2-12-21.3-24.3-21.3c-0.1,0-0.2,0-0.4,0c-9.7,0-18.7,5.7-22.8,14.6C77.1,89.7,76.8,89.9,76.5,89.9
		C76.6,89.9,76.5,89.9,76.5,89.9L76.5,89.9z M123.2,77.5c-0.2,0-0.4-0.1-0.5-0.2c-0.3-0.3-0.3-0.7,0-1l2.4-2.4
		c0.1-0.2,0.3-0.2,0.5-0.2c0.1,0,0.1,0,0.2,0c0.3,0.1,0.4,0.3,0.5,0.5c0.1,0.3,0,0.5-0.2,0.7l-2.5,2.5
		C123.5,77.4,123.4,77.5,123.2,77.5L123.2,77.5z M76.9,77.6c-0.2,0-0.4-0.1-0.5-0.2l-2.5-2.5c-0.1-0.1-0.2-0.3-0.2-0.5
		c0-0.2,0.1-0.4,0.2-0.5c0.1-0.1,0.3-0.2,0.5-0.2c0.2,0,0.4,0.1,0.5,0.2l2.4,2.4c0.2,0.2,0.3,0.5,0.2,0.7c-0.1,0.3-0.3,0.4-0.5,0.5
		C77,77.5,76.9,77.6,76.9,77.6L76.9,77.6z M130.3,88.1C130.3,88.1,130.3,88.1,130.3,88.1c-0.4,0-0.7-0.3-0.8-0.6
		c-0.1-0.3,0.1-0.7,0.4-0.8l3.2-1.3c0.1,0,0.2-0.1,0.3-0.1c0.3,0,0.6,0.2,0.7,0.4c0.1,0.3,0.1,0.4,0,0.6c-0.1,0.2-0.2,0.3-0.4,0.4
		l-1.5,0.6C131.1,87.9,130.5,88.1,130.3,88.1C130.3,88.1,130.3,88.1,130.3,88.1L130.3,88.1z M69.7,88.2c-0.2,0-0.2,0-1.7-0.6
		c-0.5-0.2-1-0.4-1.8-0.7c-0.2-0.1-0.3-0.2-0.4-0.4c-0.1-0.2-0.1-0.4,0-0.6c0.1-0.3,0.4-0.5,0.7-0.5c0.1,0,0.2,0,0.3,0.1l3.2,1.3
		c0.3,0.1,0.5,0.5,0.4,0.8C70.4,87.9,70.1,88.2,69.7,88.2L69.7,88.2z M83.8,94.8c0.1-5.2,4.2-7.6,8-7.6c2.6,0,4.9,1.1,6.1,2.9
		c1.4,2.1,1.4,4.9,0,7c-1.1,1.9-3,3.1-5.1,4.6c-1.4,1-2.9,2-4.3,3.2c-1.1,0.9-2,2-2.7,3.2l-0.9,1.5h1.8h11.6c0.4,0,0.7,0.3,0.7,0.7
		c0,0.4-0.3,0.7-0.7,0.7H84.5c-0.4,0-0.7-0.3-0.7-0.7c0-4.1,4.9-7.5,8.2-9.8c1.8-1,3.4-2.4,4.6-4l0,0l0,0c1.1-1.7,1.1-3.8,0.1-5.5
		l0-0.1l-0.1-0.1c-1.3-1.4-3.1-2.2-5-2.2c-0.6,0-1.2,0.1-1.7,0.2c-2.7,0.6-4.6,3-4.7,5.7l0,0l0,0c0,0.3-0.1,0.5-0.3,0.6
		c-0.1,0.1-0.3,0.1-0.4,0.1c-0.1,0-0.2,0-0.3-0.1C84,95.2,83.8,95,83.8,94.8L83.8,94.8z M101.7,104.1c-0.3,0-0.5-0.1-0.6-0.4
		c-0.1-0.3-0.1-0.6,0.1-0.8l12.1-15.5c0.1-0.2,0.3-0.3,0.6-0.3c0.1,0,0.1,0,0.2,0c0.3,0.1,0.5,0.4,0.5,0.7v13.8v1h1h3.4h0.2
		c0.3,0.1,0.5,0.4,0.5,0.7c0,0.4-0.3,0.7-0.7,0.7h-3.5h-1v1v5.2c0,0.4-0.3,0.7-0.7,0.7c-0.4,0-0.7-0.3-0.7-0.7v-5.2v-1h-1H101.7
		L101.7,104.1z M69.8,102.8c-0.1,0-0.3,0-0.4-0.1c-0.3-0.2-0.4-0.6-0.3-1l3.6-6c0.3-0.5,0.8-0.8,1.4-0.8c0.6,0,1.1,0.3,1.4,0.8
		l3.7,6.1c0.1,0.2,0.1,0.5,0,0.7c-0.1,0.2-0.4,0.4-0.6,0.4c-0.3,0-0.5-0.1-0.6-0.3l-1-1.7l-2-3.2l0.2,3.8
		c0.6,13.3,11.5,23.7,24.8,23.7l0.1,0c10.4,0,19.6-6.3,23.4-16.1c0.1-0.3,0.4-0.5,0.7-0.5c0.1,0,0.2,0,0.3,0
		c0.2,0.1,0.3,0.2,0.4,0.4c0.1,0.2,0.1,0.4,0,0.5c-4,10.3-13.8,16.9-24.8,17c-12.2,0-22.8-8.3-25.8-20.1c-0.4-1.8-0.6-3.8-0.6-5.7
		l0-3.7l-1.9,3.1l-1.4,2.3C70.3,102.6,70,102.8,69.8,102.8L69.8,102.8z M66.6,114.5C66.6,114.5,66.6,114.5,66.6,114.5
		c-0.4,0-0.7-0.2-0.8-0.6c-0.1-0.3,0.1-0.7,0.4-0.8l3.2-1.3c0.1,0,0.2-0.1,0.3-0.1c0.3,0,0.6,0.2,0.7,0.4c0.2,0.4,0,0.8-0.4,1
		l-1.5,0.6C67.4,114.3,66.8,114.5,66.6,114.5C66.6,114.5,66.6,114.5,66.6,114.5L66.6,114.5z M133.4,114.5c-0.1,0-0.2,0-0.3-0.1
		l-3.2-1.3c-0.4-0.2-0.5-0.6-0.4-0.9c0.1-0.3,0.4-0.4,0.7-0.4c0.1,0,0.2,0,0.3,0.1l3.2,1.3c0.4,0.2,0.5,0.6,0.4,0.9
		C134,114.4,133.7,114.5,133.4,114.5L133.4,114.5z M125.6,126.3c-0.2,0-0.4-0.1-0.5-0.2l-2.4-2.4c-0.3-0.3-0.3-0.7,0-1
		c0.1-0.1,0.3-0.2,0.5-0.2c0.2,0,0.4,0.1,0.5,0.2l2.4,2.4c0.1,0.1,0.2,0.3,0.2,0.5c0,0.2-0.1,0.4-0.2,0.5
		C126,126.2,125.8,126.3,125.6,126.3L125.6,126.3z M74.4,126.3c-0.3,0-0.6-0.2-0.7-0.5c-0.1-0.2,0-0.6,0.2-0.8l2.4-2.4
		c0.1-0.1,0.3-0.2,0.5-0.2c0.2,0,0.4,0.1,0.5,0.2c0.1,0.1,0.2,0.3,0.2,0.5c0,0.2-0.1,0.4-0.2,0.5c-0.4,0.4-0.8,0.8-1.1,1.2
		C74.7,126.3,74.7,126.3,74.4,126.3L74.4,126.3z M113.8,134.1c-0.1,0-0.2,0-0.3-0.1c-0.2-0.1-0.3-0.2-0.4-0.4l-1.3-3.2
		c-0.1-0.2-0.1-0.4,0-0.5c0.1-0.2,0.2-0.3,0.4-0.4c0.1,0,0.2-0.1,0.3-0.1c0.3,0,0.6,0.2,0.7,0.4l1.3,3.2c0.1,0.2,0.1,0.4,0,0.6
		c-0.1,0.2-0.2,0.3-0.4,0.4C114,134.1,113.9,134.1,113.8,134.1L113.8,134.1z M86.2,134.1c-0.2,0-0.4-0.1-0.6-0.3
		c-0.1-0.2-0.2-0.5-0.1-0.7l1.3-3.2c0.1-0.2,0.3-0.4,0.6-0.4c0,0,0.1,0,0.1,0c0.2,0,0.4,0.1,0.6,0.3c0.2,0.2,0.2,0.5,0.1,0.7
		l-1.3,3.2C86.7,133.9,86.5,134.1,86.2,134.1C86.2,134.1,86.2,134.1,86.2,134.1L86.2,134.1z M100,136.9c-0.4,0-0.7-0.3-0.7-0.7v-3.5
		c0-0.4,0.3-0.7,0.7-0.7c0.4,0,0.7,0.3,0.7,0.7v3.5C100.7,136.6,100.4,136.9,100,136.9L100,136.9z M113.1,90l-1.8,2.3l-6.8,8.8
		l-1.3,1.6h2h6.8h1v-1v-8.8V90L113.1,90z"/>
</g>
</svg>
